<?xml version="1.0" encoding="utf-8"?>
<!-- Generator: Adobe Illustrator 22.1.0, SVG Export Plug-In . SVG Version: 6.00 Build 0)  -->
<svg version="1.1" id="Layer_1" xmlns="http://www.w3.org/2000/svg" xmlns:xlink="http://www.w3.org/1999/xlink" x="0px" y="0px"
	 viewBox="0 0 1776 474" style="enable-background:new 0 0 1776 474;" xml:space="preserve">
<style type="text/css">
	.st0{fill:url(#SVGID_1_);}
</style>
<linearGradient id="SVGID_1_" gradientUnits="userSpaceOnUse" x1="210.4355" y1="460.9981" x2="648.8542" y2="22.5795">
	<stop  offset="0" style="stop-color:#9700CB"/>
	<stop  offset="7.494579e-02" style="stop-color:#A500C0"/>
	<stop  offset="0.3572" style="stop-color:#D6009B"/>
	<stop  offset="0.5725" style="stop-color:#F40085"/>
	<stop  offset="0.6939" style="stop-color:#FF007C"/>
	<stop  offset="1" style="stop-color:#FF007C"/>
</linearGradient>
<path class="st0" d="M372.7,287.4c5.1-9.8,10.1-18.5,14.9-26c4.8-7.5,9-13.7,12.6-18.3c3.6-4.7,5.8-7.5,6.6-8.3
	c1.7-1.4,3.4-2.5,5.1-3.2c1.7-0.7,3.3-0.9,4.9-0.4c1.6,0.4,2.8,1.5,3.6,3.2c0.9,1.7,1.1,4.4,0.9,8.1c-1.1,10.8-3.8,20.3-8.1,28.4
	c-4.3,8.1-9.4,15.1-15.4,21.1c-6,6-12.4,11-19.2,15.1c-6.8,4.1-13.5,7.8-20.1,10.9C362.9,307.3,367.6,297.2,372.7,287.4
	 M575.6,192.6c10.1-20.3,19.8-38.3,29.2-54c9.4-15.6,17.5-28.3,24.3-38C636,91,640,85.3,641.1,83.6c2-3.1,4.5-4.8,7.7-5.1
	c3.1-0.3,5.5,2,7.3,6.8c0.3,1.4,0.1,5.9-0.6,13.4c-0.7,7.5-2.4,16.6-5.1,27.3c-2.7,10.7-6.5,22.4-11.5,35.2
	c-5,12.8-11.5,25.4-19.6,37.8c-8.1,12.4-17.9,23.8-29.4,34.1c-11.5,10.4-25.1,18.6-40.7,24.5C556.6,234.7,565.5,213,575.6,192.6
	 M627,23.3c-6.8,1.6-13.9,5.8-21.3,12.6c-15.9,14.5-30.1,30.6-42.5,48.2c-12.4,17.6-23.2,35.8-32.4,54.4
	c-9.2,18.6-17.1,37.5-23.7,56.5c-6.5,19.1-12,37.3-16.4,54.6c-2.6,10.1-4.8,19.8-6.7,29c-2.7,6.2-5.8,12.8-9.3,20
	c-5.1,10.5-10.8,21.3-17.1,32.4c-6.3,11.1-13,21.9-20.3,32.4c-7.3,10.5-14.9,19.8-22.8,27.7c-8,8-16.1,14.3-24.5,19
	c-8.4,4.7-16.7,6.6-25,5.8c-6-0.6-10.9-4.6-14.7-12.2c-3.8-7.5-5.1-19.8-3.6-36.9c0.3-3.1,0.6-6.4,1.1-9.8c0.4-3.4,1.1-6.8,1.9-10.2
	c3.4-0.3,8-1.3,13.9-3c5.8-1.7,12.1-4.3,18.8-7.7c6.7-3.4,13.5-7.7,20.5-12.8c7-5.1,13.4-11.4,19.2-18.8
	c5.8-7.4,10.7-15.9,14.7-25.6c4-9.7,6.4-20.8,7.3-33.3c0.3-6.8,0-13.6-0.9-20.3c-0.9-6.7-2.8-12.6-5.8-17.7c-3-5.1-7.3-9.2-13-12.2
	c-5.7-3-12.9-4.2-21.8-3.6c-13.4,0.6-26.7,6.1-40.1,16.6c-13.4,10.5-25.4,24-36.1,40.5c-10.7,16.5-19.3,35-26,55.5
	c-3.1,9.4-5.4,18.8-7.1,28.2c-5.1,11.1-10.5,21.5-16.1,31.1c-8,13.7-16.1,24.7-24.5,33.3c-8.4,8.5-17,12.5-25.8,11.9
	c-3.4-0.3-5.3-3.1-5.8-8.3c-0.4-5.3,0-11.9,1.3-19.8c1.3-8,3.2-16.9,5.8-26.9c2.6-10,5.2-19.7,7.9-29.2c2.7-9.5,5.2-18.5,7.5-26.9
	c2.3-8.4,3.7-15.1,4.3-20.3c1.1-9.4,0.9-17.3-0.6-23.7c-1.6-6.4-3.8-12-6.8-16.9c-3-4.8-6.3-9.3-9.8-13.4c-3.6-4.1-6.8-8.7-9.6-13.9
	c-2.6-4-4.1-7.1-4.5-9.4c-0.4-2.3-0.4-4.5,0.2-6.8c0.6-2.3,1.5-4.8,2.8-7.7c1.3-2.8,2.3-6.7,3.2-11.5c1.1-5.4,0.1-11.5-3.2-18.3
	c-3.3-6.8-7.3-12.4-12.2-16.9c-4.8-4.4-9.7-7-14.5-7.7c-4.8-0.7-8.4,2.1-10.7,8.3c-2.8,8.5-6.3,18.6-10.5,30.3
	c-4.1,11.7-8.5,23.8-13.2,36.5c-4.7,12.7-9.4,25.2-14.1,37.5c-4.7,12.4-9,23.5-13,33.5c-1.7,3.7-2,7.3-0.9,10.9
	c1.1,3.6,2.9,6.3,5.3,8.3c2.4,2,5,2.9,7.7,2.8c2.7-0.1,4.9-2.2,6.6-6.2l19.2-50.8c5.4,6.5,10.2,11.7,14.5,15.4
	c4.3,3.7,6.4,7.8,6.4,12.4c0,6.8-1.3,14.4-3.8,22.8c-2.6,8.4-5.3,17.4-8.3,26.9c-3,9.5-5.7,19.5-8.1,29.9
	c-2.4,10.4-3.6,21.1-3.6,32.2c0,8.5,1,16.8,3,24.7c2,8,5.2,15.1,9.6,21.3c4.4,6.3,10.1,11.2,17.1,14.9c7,3.7,15.3,5.4,25,5.1
	c8.5-0.3,16.9-2.9,25-7.9c8.1-5,15.8-11.6,23-19.8c7.3-8.2,14.1-17.8,20.5-28.6c0.7-1.2,1.4-2.4,2.1-3.6c0.3,2.3,0.6,4.7,0.9,7.2
	c1.6,11,4.8,21.1,9.6,30.5c4.8,9.4,11.9,17.1,21.1,23c9.2,6,21.4,8.5,36.5,7.7c11.4-0.9,22.2-4,32.4-9.4c10.2-5.4,20-12.4,29.2-21.1
	c9.2-8.7,17.8-18.6,25.8-29.7c8-11.1,15.4-22.8,22.4-35.2c1.9-3.3,3.7-6.7,5.5-10.1c0,7.6,0.5,15.4,1.5,23.5
	c1.7,13.7,5.4,26.1,11.1,37.3c5.7,11.2,13.6,20.4,23.7,27.5c10.1,7.1,22.8,10.2,38.2,9.4c7.1-0.3,16.1-3.4,27.1-9.4
	c10.9-6,22.8-15.5,35.6-28.6c12.8-13.1,26-30.2,39.5-51.4c13.5-21.2,26.2-47.4,38.2-78.7c2.3-6.3,2.8-11.4,1.5-15.4
	c-1.3-4-3.3-6.6-6.2-7.9c-2.8-1.3-13.2,0.3-14.8,6.5c-6.5,26.2-21.5,51.1-31.9,69.4c-10.4,18.3-20.8,33.4-31.4,45.2
	c-10.5,11.8-20.8,20.2-30.7,25.2c-10,5-19.1,6.6-27.3,4.9c-4.3-0.9-7.7-3.5-10.2-7.9c-2.6-4.4-4.4-9.8-5.5-16.2
	c-1.1-6.4-1.8-13.4-1.9-21.1c-0.1-7.7,0-15.1,0.4-22.2c0.4-7.1,1-13.6,1.7-19.4c0.7-5.8,1.3-10.2,1.9-13c0.3-1.7,0.6-3.5,0.9-5.3
	c0.3-1.8,0.7-3.8,1.3-5.8c19.3-5.7,36.4-14,51.2-25c14.8-10.9,27.6-23.2,38.4-36.7c10.8-13.5,19.8-27.7,26.9-42.5
	c7.1-14.8,12.9-28.7,17.3-41.8c4.4-13.1,7.5-24.7,9.4-34.8c1.8-10.1,2.9-17.4,3.2-22c0-6.5-0.9-13.5-2.6-20.9
	c-1.7-7.4-4.2-14.4-7.5-21.1c-3.3-6.7-7.3-12.7-11.9-17.9c-4.7-5.3-10-9-15.8-11.3c-3.5-1.3-7.1-2-10.9-2
	C632.5,22.3,629.8,22.6,627,23.3"/>
<g>
	<path d="M783.4,435.7c-7.2,5.6-15.2,9.2-23.5,11.2c-8.8,2.4-18.3,3.6-28.3,3.6c-5.2,0-10.4-0.4-15.6-0.4
		c-5.6-0.8-10.4-1.2-15.2-1.6c-5.2-0.8-10-1.6-14-2.8c-4.4-0.8-8-1.6-10.4-2.8c-6.4-2-10.4-5.2-12.8-9.6c-2.4-4-3.6-7.6-3.2-11.6
		c0.4-6,3.2-11.2,8-15.2c4.4-4,10.4-4.8,17.6-3.2c7.6,2,15.2,3.2,23.1,4c7.6,1.2,14.4,1.6,20.3,1.6c10.4,0,18-2.4,23.1-8
		c4.8-5.2,7.6-11.6,7.6-18.7c0-3.6-1.2-7.6-3.6-12c-2.8-4-7.2-8-13.6-12c-6.8-4-14-8-21.5-12.8c-8-4.4-15.6-8.8-22.3-13.2
		c-8.8-5.2-16-12.4-21.9-21.9c-6.4-8.8-9.2-18.7-9.2-29.1c0-10.4,2-19.1,6-27.1c4-7.2,9.2-13.6,16.4-18.7
		c6.4-4.8,14.4-8.8,23.5-11.2c8.8-2.4,18.3-3.6,28.3-3.6c7.6,0,16,0.8,24.7,1.6c8.4,1.6,15.6,3.2,21.9,5.2
		c6.4,2.4,11.6,5.6,15.2,9.6c3.2,4.4,4.4,9.2,3.6,14.4c-0.8,5.6-3.6,10-7.6,13.2c-4.8,4-10.4,4.8-17.6,2.4c-5.6-1.6-11.6-2.8-17.6-4
		c-6.4-0.8-13.2-1.6-20.3-1.6c-9.6,0-16,1.6-19.9,4.8c-4,3.2-6,8-6,13.6c0,6.4,2,11.6,6.8,16c4.4,4.8,10,8.8,17.1,12
		c8.8,4.4,16.8,8.4,23.9,12.4c7.2,4.4,12,7.6,15.2,10c9.6,7.6,16.8,15.2,21.9,23.1c4.8,8.4,7.6,18,7.6,29.1
		C811.3,405,801.7,422.9,783.4,435.7"/>
	<path d="M954.9,231.8c6.4,0,12,1.6,16.8,4.8c4.8,3.6,7.2,8.8,7.2,15.6c0,7.2-2.4,12.8-7.2,16c-4.8,3.6-10.4,5.2-16,5.2H923v117.3
		c0,8.4,1.6,14,5.6,16.8c3.6,3.2,8.4,4.8,14,4.8c2.8,0,6.4-0.4,10.8-2c4-1.2,6.8-2.4,9.2-3.6c1.6-0.8,4.4-1.2,7.6-2
		c2.8,0,5.6,0,8.8,0.8c2.8,0.8,5.6,2.4,8.4,4.4c2.4,2.4,4.4,5.2,5.6,9.2c0.8,4.8,0.8,8.4-0.4,11.6c-1.6,3.6-3.6,6.4-6,8.8
		c-2.8,2.8-5.6,4.8-8,6.4c-3.2,1.6-5.2,2.8-6.4,3.2c-4,1.6-9.2,3.2-15.2,4.8c-6.4,1.6-13.2,2.4-19.9,2.4c-10.4,0-19.5-2-27.1-5.2
		c-8-3.2-14.8-7.6-19.9-13.6c-5.6-5.6-10-12.4-12.4-20.3c-2.8-7.6-4-15.6-4-24.3V273.2h-23.1c-5.6,0-10.8-1.6-15.2-5.2
		c-4.8-3.2-7.2-8.8-7.2-16c0-6.8,2-12,6.8-15.6c4.4-3.2,10-4.8,16.8-4.8h21.9v-60.2c0-5.6,1.6-10.4,5.6-15.2c3.2-4,9.6-6.4,19.1-6.4
		c7.6,0,13.6,2,18.3,6c4,4.4,6.4,9.6,6.4,15.6v60.2H954.9z"/>
	<path d="M1108.9,225.8c15.6,0,29.9,3.2,43.1,8.8c12.8,6,24.3,14,33.9,23.9c9.2,10.4,16.4,22.7,21.9,36.7
		c4.8,14.4,7.6,29.5,7.6,45.9c0,16-2.8,30.7-7.6,44.3c-5.2,14-12.4,25.9-21.1,36.3c-9.6,10.4-20.7,18.8-33.5,24.7
		c-13.6,6-28.3,9.2-44.3,9.2s-30.3-2.8-43.1-8.4c-13.6-5.6-24.7-13.2-33.9-23.5c-9.6-10-16.8-21.9-21.5-36.3c-5.6-14-8-29.5-8-46.3
		c0-15.2,2.4-29.5,7.2-43.9c4.4-13.6,11.2-25.9,20.3-36.7c8.8-10.4,19.9-19.1,33.5-25.5C1076.5,229,1091.7,225.8,1108.9,225.8
		 M1108.9,270.4c-8.8,0-16.8,2-23.5,5.2c-7.2,4-13.2,8.8-18,15.2c-5.2,6.4-9.2,14-11.6,22.3c-2.8,8.8-4,18.3-4,28.3
		c0,10,1.2,19.1,4,27.5c2.4,8.8,6,16,10.8,22.3c4.8,6.4,10.8,11.6,18,14.8c6.8,4,14.8,5.6,24.3,5.6c8.8,0,17.1-1.6,24.3-5.6
		c6.8-3.2,12.8-8.4,18-14.8c4.8-6.4,8.4-13.6,11.2-22.3c2.4-8.4,3.6-17.6,3.6-27.5c0-9.2-1.2-18.4-3.6-27.1
		c-2.8-8.4-6.4-16-11.2-22.7c-4.8-6.4-10.8-11.6-17.6-15.6C1126.4,272.4,1118,270.4,1108.9,270.4"/>
	<path d="M1432.3,300c-5.6,4.4-11.2,6-16.8,4.4c-6.4-0.8-11.2-3.6-14.8-7.6c-8-8.8-16.4-15.2-24.3-19.9c-8.4-4.4-17.9-6.8-29.1-6.8
		c-18.7,0-33.5,6.4-43.9,18.4c-10.8,12.4-16,29.9-16,52.3c0,21.5,5.2,39.1,15.6,51.9c10.4,13.6,25.1,19.9,44.3,19.9
		c10.4,0,19.5-2,27.5-6.8c8-4,16-10.4,24.7-19.1l4-4c1.6-1.6,4-2.8,7.2-4.4c2.4-0.8,5.6-1.2,9.6-1.2c3.6,0.4,7.6,2,12.4,4.8
		c5.6,4,8.8,8.8,10,14.4c0.8,6.4-0.8,12-5.6,17.6c-11.6,13.6-24.7,23.9-39.1,31.1c-14.8,7.2-31.9,10.8-51.9,10.8
		c-15.2,0-29.5-2.8-42.3-7.6c-13.6-4.8-24.7-12.4-34.3-22.3c-9.6-9.6-17.2-21.1-22.3-35.5c-5.6-14-8.4-29.9-8.4-47.9
		c0-16.8,2.4-32.3,7.6-46.7c4.8-14,12.4-26.3,21.9-36.7c9.2-10.4,20.7-18.3,34.3-24.3c13.6-5.6,28.7-8.4,45.9-8.4
		c17.9,0,34.7,3.6,49.9,10c15.2,7.2,27.9,17.9,39.1,33.1c3.2,4.8,4.8,9.6,4.8,15.2C1441.5,290,1438.3,295.2,1432.3,300"/>
	<path d="M1522.1,430.4c0,7.6-2,13.6-5.2,17.9c-3.6,4.8-10,7.2-19.1,7.2c-8.8,0-15.2-2.4-19.1-7.2c-4-4.8-6-10-6-16.4V171.5
		c0-6.4,2-12,6-16.8c4-4.8,10.4-7.2,19.1-7.2c9.2,0,15.6,2.4,19.1,6.8c3.2,4.8,5.2,11.2,5.2,18.3v128.8l77.4-66.2
		c7.2-6.4,14.4-9.6,21.1-10.4c6.4,0,11.6,1.6,16.4,4.8c6.8,5.6,9.6,11.6,8,17.9c-1.6,6.8-6.4,13.6-14.4,20.3l-83.8,71.4l90.5,79.4
		c4.8,4.4,7.6,9.6,8.8,15.6c0.8,6.4-1.6,12-6.8,16.8c-4.8,4-10.4,6-17.6,6c-7.2-0.8-13.2-2.8-17.5-6.8l-82.2-73.4V430.4z"/>
</g>
</svg>
